MFile 1 2 256
MTrk
0 TimeSig 4/4 24 8
0 KeySig -1 major
0 TimeSig 3/4 24 8
1 Meta TrkEnd
TrkEnd
MTrk
0 Par ch=1 c=91 v=50
0 Par ch=1 c=10 v=73
0 Par ch=1 c=91 v=50
0 Par ch=1 c=10 v=73
0 Par ch=1 c=0 v=0
0 Par ch=1 c=32 v=0
0 PrCh ch=1 p=0
0 On ch=1 n=60 v=70
173 On ch=1 n=60 v=0
192 On ch=1 n=60 v=72
250 On ch=1 n=60 v=0
256 On ch=1 n=62 v=83
256 On ch=1 n=53 v=73
256 On ch=1 n=57 v=72
487 On ch=1 n=62 v=0
512 On ch=1 n=60 v=72
743 On ch=1 n=60 v=0
768 On ch=1 n=65 v=85
974 On ch=1 n=53 v=0
974 On ch=1 n=57 v=0
999 On ch=1 n=65 v=0
1024 On ch=1 n=64 v=79
1024 On ch=1 n=48 v=81
1024 On ch=1 n=58 v=81
1486 On ch=1 n=64 v=0
1536 On ch=1 n=60 v=71
1709 On ch=1 n=60 v=0
1728 On ch=1 n=60 v=72
1742 On ch=1 n=48 v=0
1742 On ch=1 n=58 v=0
1786 On ch=1 n=60 v=0
1792 On ch=1 n=62 v=85
1792 On ch=1 n=48 v=80
1792 On ch=1 n=58 v=79
2023 On ch=1 n=62 v=0
2048 On ch=1 n=60 v=69
2279 On ch=1 n=60 v=0
2304 On ch=1 n=67 v=90
2510 On ch=1 n=48 v=0
2510 On ch=1 n=58 v=0
2535 On ch=1 n=67 v=0
2560 On ch=1 n=65 v=75
2560 On ch=1 n=53 v=73
2560 On ch=1 n=57 v=73
3022 On ch=1 n=65 v=0
3072 On ch=1 n=60 v=69
3245 On ch=1 n=60 v=0
3264 On ch=1 n=60 v=74
3278 On ch=1 n=53 v=0
3278 On ch=1 n=57 v=0
3322 On ch=1 n=60 v=0
3328 On ch=1 n=72 v=99
3328 On ch=1 n=53 v=77
3328 On ch=1 n=57 v=79
3559 On ch=1 n=72 v=0
3584 On ch=1 n=69 v=74
3815 On ch=1 n=69 v=0
3840 On ch=1 n=65 v=66
4046 On ch=1 n=53 v=0
4046 On ch=1 n=57 v=0
4071 On ch=1 n=65 v=0
4096 On ch=1 n=64 v=73
4096 On ch=1 n=53 v=81
4096 On ch=1 n=58 v=84
4327 On ch=1 n=64 v=0
4352 On ch=1 n=62 v=69
4583 On ch=1 n=62 v=0
4608 On ch=1 n=70 v=89
4781 On ch=1 n=70 v=0
4800 On ch=1 n=70 v=78
4814 On ch=1 n=53 v=0
4814 On ch=1 n=58 v=0
4858 On ch=1 n=70 v=0
4864 On ch=1 n=69 v=76
4864 On ch=1 n=53 v=75
4864 On ch=1 n=57 v=75
5095 On ch=1 n=69 v=0
5120 On ch=1 n=65 v=65
5326 On ch=1 n=53 v=0
5326 On ch=1 n=57 v=0
5351 On ch=1 n=65 v=0
5376 On ch=1 n=67 v=77
5376 On ch=1 n=48 v=78
5376 On ch=1 n=58 v=79
5607 On ch=1 n=67 v=0
5607 On ch=1 n=48 v=0
5607 On ch=1 n=58 v=0
5632 On ch=1 n=65 v=73
5632 On ch=1 n=53 v=76
5632 On ch=1 n=57 v=76
6350 On ch=1 n=65 v=0
6350 On ch=1 n=53 v=0
6350 On ch=1 n=57 v=0
6351 Meta TrkEnd
TrkEnd
