MFile 1 2 15360
MTrk
0 Meta SeqName "Transport"
0 Meta InstrName "Hardware Interface II"
0 Meta 0x21 00
0 Tempo 500000
0 TimeSig 4/4 24 8
38400 Meta TrkEnd
TrkEnd
MTrkr
0 Meta TrkName "Original Ch1"
0 Meta InstrName "Original Ch1"
0 Meta 0x21 03
1 Off ch=1 n=57 v=70
1 Off ch=1 n=53 v=70
1 Off ch=1 n=65 v=70
719 Off ch=1 n=57 719 Off ch=1 n=53 719 Off ch=1 n=65 744 Off ch=1 n=58 v=70
744 Off ch=1 n=48 v=70
744 Off ch=1 n=67 v=70
975 Off ch=1 n=58 975 Off ch=1 n=48 975 Off ch=1 n=67 1000 Off ch=1 n=65 v=70
1025 Off ch=1 n=57 v=70
1025 Off ch=1 n=53 v=70
1231 Off ch=1 n=65 1256 Off ch=1 n=69 v=70
1487 Off ch=1 n=57 1487 Off ch=1 n=53 1487 Off ch=1 n=69 1493 Off ch=1 n=70 v=70
1537 Off ch=1 n=58 v=70
1537 Off ch=1 n=53 v=70
1551 Off ch=1 n=70 1570 Off ch=1 n=70 v=70
1743 Off ch=1 n=70 1768 Off ch=1 n=62 v=70
1999 Off ch=1 n=62 2024 Off ch=1 n=64 v=70
2255 Off ch=1 n=58 2255 Off ch=1 n=53 2255 Off ch=1 n=64 2280 Off ch=1 n=65 v=70
2305 Off ch=1 n=57 v=70
2305 Off ch=1 n=53 v=70
2511 Off ch=1 n=65 2536 Off ch=1 n=69 v=70
2767 Off ch=1 n=69 2792 Off ch=1 n=72 v=70
3023 Off ch=1 n=57 3023 Off ch=1 n=53 3023 Off ch=1 n=72 3029 Off ch=1 n=60 v=70
3073 Off ch=1 n=57 v=70
3073 Off ch=1 n=53 v=70
3087 Off ch=1 n=60 3106 Off ch=1 n=60 v=70
3279 Off ch=1 n=60 3329 Off ch=1 n=65 v=70
3791 Off ch=1 n=57 3791 Off ch=1 n=53 3791 Off ch=1 n=65 3816 Off ch=1 n=67 v=70
3841 Off ch=1 n=58 v=70
3841 Off ch=1 n=48 v=70
4047 Off ch=1 n=67 4072 Off ch=1 n=60 v=70
4303 Off ch=1 n=60 4328 Off ch=1 n=62 v=70
4559 Off ch=1 n=58 4559 Off ch=1 n=48 4559 Off ch=1 n=62 4565 Off ch=1 n=60 v=70
4609 Off ch=1 n=58 v=70
4609 Off ch=1 n=48 v=70
4623 Off ch=1 n=60 4642 Off ch=1 n=60 v=70
4815 Off ch=1 n=60 4865 Off ch=1 n=64 v=70
5327 Off ch=1 n=58 5327 Off ch=1 n=48 5327 Off ch=1 n=64 5352 Off ch=1 n=65 v=70
5377 Off ch=1 n=57 v=70
5377 Off ch=1 n=53 v=70
5583 Off ch=1 n=65 5608 Off ch=1 n=60 v=70
5839 Off ch=1 n=60 5864 Off ch=1 n=62 v=70
6095 Off ch=1 n=57 6095 Off ch=1 n=53 6095 Off ch=1 n=62 6101 Off ch=1 n=60 v=70
6159 Off ch=1 n=60 6178 Off ch=1 n=60 v=70
6351 Off ch=1 n=60 v=0
